<svg xmlns="http://www.w3.org/2000/svg" viewBox="0 0 64 64">
  <defs>
    <linearGradient id="bg" x1="0%" y1="0%" x2="100%" y2="100%">
      <stop offset="0%" stop-color="#0f7a78"/>
      <stop offset="100%" stop-color="#0a4a48"/>
    </linearGradient>
  </defs>
  <rect width="64" height="64" rx="14" fill="url(#bg)"/>
  <!-- Soccer ball -->
  <circle cx="32" cy="30" r="16" fill="white" opacity="0.95"/>
  <!-- Pentagon center -->
  <polygon points="32,18 38.5,23 36,30.5 28,30.5 25.5,23" fill="#0a3a38"/>
  <!-- Side patches -->
  <polygon points="32,18 25.5,23 18,19 20,12" fill="#0a3a38" opacity="0.7"/>
  <polygon points="32,18 38.5,23 46,19 44,12" fill="#0a3a38" opacity="0.7"/>
  <polygon points="36,30.5 38.5,23 46,25 46,34" fill="#0a3a38" opacity="0.7"/>
  <polygon points="28,30.5 25.5,23 18,25 18,34" fill="#0a3a38" opacity="0.7"/>
  <polygon points="28,30.5 36,30.5 38,38 32,42 26,38" fill="#0a3a38" opacity="0.7"/>
  <!-- "P" letter bottom -->
  <text x="32" y="57" font-family="system-ui, Arial Black, sans-serif" font-size="10" font-weight="900" fill="white" text-anchor="middle" letter-spacing="1">PREDICTS</text>
</svg>
